# xmcd CD database file
#
# Track frame offsets:
#	150
#	26240
#	33975
#	60667
#
# Disc length: 1155 seconds
#
# Revision: 0
# Processed by: cddbd v1.5PL3 Copyright (c) Steve Scherf et al.
# Submitted via: CDex 1.50beta9
#
DISCID=2e048104
DTITLE=華原 朋美 - たのしく たのしく やさしくね
DYEAR=1900
DGENRE=J-POP
TTITLE0=たのしく たのしく やさしくね(Original Mix)
TTITLE1=たのしく たのしく やさしくね(Kanebo CM Version)
TTITLE2=たのしく たのしく やさしくね(Summer Night Mix)
TTITLE3=たのしく たのしく やさしくね(Karaoke Mix)
EXTD=
EXTT0=
EXTT1=
EXTT2=
EXTT3=
PLAYORDER=
